<svg height="512" viewBox="0 0 512 512" width="512" xmlns="http://www.w3.org/2000/svg"><g id="Filled_outline" data-name="Filled outline"><path d="m40 432h448v32h-448z" fill="#dfdfdd"/><path d="m56 87.94h416v344.06h-416z" fill="#dfdfdd"/><path d="m472 88v59.72a31.848 31.848 0 0 1 -15.99 4.28h-.02a31.987 31.987 0 0 1 -31.99-31.99 31.987 31.987 0 0 1 -31.99 31.99h-.02a31.987 31.987 0 0 1 -31.99-31.99 31.987 31.987 0 0 1 -31.99 31.99h-.02a31.987 31.987 0 0 1 -31.99-31.99 31.987 31.987 0 0 1 -31.99 31.99h-.02a31.987 31.987 0 0 1 -31.99-31.99 31.987 31.987 0 0 1 -31.99 31.99h-.02a31.987 31.987 0 0 1 -31.99-31.99 31.987 31.987 0 0 1 -31.99 31.99h-.02a31.987 31.987 0 0 1 -31.99-31.99 31.987 31.987 0 0 1 -31.99 31.99h-.02a31.848 31.848 0 0 1 -15.99-4.28v-59.72z" fill="#d5d5d3"/><path d="m88 167.866h352v264.164h-352z" fill="#348ed8"/><path d="m232 24h64v63.94h-64z" fill="#d26699"/><path d="m168 87.94h-64l16-63.94h56z" fill="#d26699"/><path d="m424 87.94h-64l-8-63.94h56z" fill="#d26699"/><path d="m232 87.94h-64l8-63.94h56z" fill="#95c2da"/><path d="m104 87.94h-64l24-63.94h56z" fill="#95c2da"/><path d="m360 87.94h-64v-63.94h56z" fill="#95c2da"/><path d="m488 87.94h-64l-16-63.94h56z" fill="#95c2da"/><path d="m232 87.94h64a0 0 0 0 1 0 0v15.97a31.985 31.985 0 0 1 -31.985 31.99h-.03a31.985 31.985 0 0 1 -31.985-31.989v-15.971a0 0 0 0 1 0 0z" fill="#c6568b"/><path d="m104 87.94h64a0 0 0 0 1 0 0v15.97a31.985 31.985 0 0 1 -31.985 31.99h-.03a31.985 31.985 0 0 1 -31.985-31.989v-15.971a0 0 0 0 1 0 0z" fill="#c6568b"/><path d="m360 87.94h64a0 0 0 0 1 0 0v15.97a31.985 31.985 0 0 1 -31.985 31.99h-.03a31.985 31.985 0 0 1 -31.985-31.989v-15.971a0 0 0 0 1 0 0z" fill="#c6568b"/><path d="m168 87.94h64a0 0 0 0 1 0 0v15.97a31.985 31.985 0 0 1 -31.985 31.99h-.03a31.985 31.985 0 0 1 -31.985-31.989v-15.971a0 0 0 0 1 0 0z" fill="#87bbd5"/><path d="m40 87.94h64a0 0 0 0 1 0 0v15.97a31.985 31.985 0 0 1 -31.985 31.99h-.03a31.985 31.985 0 0 1 -31.985-31.989v-15.971a0 0 0 0 1 0 0z" fill="#87bbd5"/><path d="m296 87.94h64a0 0 0 0 1 0 0v15.97a31.985 31.985 0 0 1 -31.985 31.99h-.03a31.985 31.985 0 0 1 -31.985-31.989v-15.971a0 0 0 0 1 0 0z" fill="#87bbd5"/><path d="m424 87.94h64a0 0 0 0 1 0 0v15.97a31.985 31.985 0 0 1 -31.985 31.99h-.03a31.985 31.985 0 0 1 -31.985-31.989v-15.971a0 0 0 0 1 0 0z" fill="#87bbd5"/><path d="m408 255.784-16-15.984h-24v-6.516l7.155-14.3a7.982 7.982 0 0 0 .845-3.575v-3.586a20 20 0 0 0 -40 0v3.586h16v-3.586a4 4 0 0 1 8 0v1.7l-7.155 14.3a7.978 7.978 0 0 0 -.845 3.577v8.4h-24l-16 15.985 8 23.978h8l-8 95.91h80l-8-95.91h8zm-48 7.992a15.983 15.983 0 0 1 -13.842-7.992h27.684a15.983 15.983 0 0 1 -13.842 7.992z" fill="#2b78b7"/><path d="m344 255.784-16-15.984h-24v-6.516l7.155-14.3a7.982 7.982 0 0 0 .845-3.575v-3.586a20 20 0 0 0 -40 0v3.586h16v-3.586a4 4 0 0 1 8 0v1.7l-7.155 14.3a7.978 7.978 0 0 0 -.845 3.577v8.4h-24l-16 15.985 8 23.978h8l-8 95.91h80l-8-95.91h8zm-48 7.992a15.983 15.983 0 0 1 -13.842-7.992h27.684a15.983 15.983 0 0 1 -13.842 7.992z" fill="#2b78b7"/><path d="m280 255.784-16-15.984h-24v-6.516l7.155-14.3a7.982 7.982 0 0 0 .845-3.575v-3.586a20 20 0 0 0 -40 0v3.586h16v-3.586a4 4 0 0 1 8 0v1.7l-7.155 14.3a7.978 7.978 0 0 0 -.845 3.577v8.4h-24l-16 15.985 8 23.978h8l-8 95.91h80l-8-95.91h8zm-48 7.992a15.983 15.983 0 0 1 -13.842-7.992h27.684a15.983 15.983 0 0 1 -13.842 7.992z" fill="#2b78b7"/><path d="m216 255.784-16-15.984h-24v-6.516l7.155-14.3a7.982 7.982 0 0 0 .845-3.575v-3.586a20 20 0 0 0 -40 0v3.586h16v-3.586a4 4 0 0 1 8 0v1.7l-7.155 14.3a7.978 7.978 0 0 0 -.845 3.577v8.4h-24l-16 15.985 8 23.978h8l-8 95.91h80l-8-95.91h8zm-48 7.992a15.983 15.983 0 0 1 -13.842-7.992h27.684a15.983 15.983 0 0 1 -13.842 7.992z" fill="#2b78b7"/><path d="m376 351.694v55.948l-16 7.993v15.985h80v-79.926z" fill="#2b78b7"/><path d="m280 351.694v55.948l-16 7.993v15.985h80v-79.926z" fill="#2b78b7"/><rect fill="#d26699" height="272" rx="24" width="160" x="24" y="216"/><g fill="#c6568b"><path d="m120 264h32v32h-32z"/><path d="m56 264h32v32h-32z"/><path d="m56 328h32v32h-32z"/><path d="m56 392h32v32h-32z"/><path d="m120 392h32v32h-32z"/><path d="m120 328h32v32h-32z"/></g><path d="m212.284 348.284-28.284-28.284v80l-27.029-27.03a16.975 16.975 0 0 0 -12-4.97 16.971 16.971 0 0 0 -16.971 16.97 16.967 16.967 0 0 0 4.971 12l27.029 27.03a49.7 49.7 0 0 0 -3.1 49.8l3.1 6.2v8h64v-111.431a40 40 0 0 0 -11.716-28.285z" fill="#fdc8a2"/><rect fill="#fdb683" height="22.627" rx="8" transform="matrix(.707 -.707 .707 .707 -232.264 255.265)" width="16" x="184" y="396.686"/><path d="m88 168h352v16h-352z" fill="#2c86d1"/><path d="m488 424.41h-8v-40.41h-16v40h-16v-256a8 8 0 0 0 -8-8h-352a8 8 0 0 0 -8 8v24h16v-16h336v32h-56.4a20 20 0 0 0 -39.194 0h-24.806a20 20 0 0 0 -39.194 0h-24.806a20 20 0 0 0 -39.194 0h-8.406v16h27.056l-2.211 4.422a7.994 7.994 0 0 0 -.845 3.578v8h-16v16a24 24 0 0 0 48 0h4.687l10.16 10.161-4.613 13.839h-2.234a8 8 0 0 0 -7.973 8.664l1.278 15.336h-33.305v16h34.638l4.621 55.478.043.522h-15.302v16h24v11.056l-11.578 5.789a8 8 0 0 0 -4.422 7.155v8h-8l-.018 16 232.018.41v15.99l-231.986-.4-.028 16 240 .41h.014a8 8 0 0 0 8-8v-32a8 8 0 0 0 -8-8zm-120-168.41a8.02 8.02 0 0 1 -9.787 7.8 7.979 7.979 0 0 1 -6.213-7.8zm-64-22.111 4.944-9.889h46.112l-2.211 4.422a7.994 7.994 0 0 0 -.845 3.578v8h-48zm16.027 54.776 1.273 15.335h-33.3v16h34.637l2 24h-44.637a7.963 7.963 0 0 0 -3.248.693l-4.061-48.722a8 8 0 0 0 6.9-5.441l4.552-13.656a24.011 24.011 0 0 0 35.857-20.874h4.687l10.16 10.161-4.613 13.839h-2.234a8 8 0 0 0 -7.973 8.665zm-16.027 71.335v16h-16v-16zm0-104a8 8 0 1 1 -16 0zm-72 8a7.977 7.977 0 0 1 -8-8h16a8.009 8.009 0 0 1 -8 8zm8-24v-6.111l4.944-9.889h46.112l-2.211 4.422a7.994 7.994 0 0 0 -.845 3.578v8zm48 176v8h-16v-3.056l11.578-5.789a8 8 0 0 0 4.422-7.155v-16h16v11.056l-11.578 5.789a8 8 0 0 0 -4.422 7.155zm48 8h-32v-3.056l11.578-5.789a8 8 0 0 0 4.422-7.155v-16h16zm0-48h-16v-16h16zm8-32h-3.308l-4-48.03a8 8 0 0 0 6.9-5.44l4.553-13.66a23.922 23.922 0 0 0 11.855 3.13 24.028 24.028 0 0 0 24-24h4.687l10.16 10.161-4.613 13.839h-2.234a8 8 0 0 0 -7.973 8.664l1.278 15.336h-33.305v16h34.637l2 24h-12.637a8 8 0 0 0 -8 8v24h-16v-24a8 8 0 0 0 -8-8zm56 16v16h-16v-16zm-48 56v-24h16v11.056l-11.578 5.789a8 8 0 0 0 -4.422 7.155zm32 0v8h-16v-3.056l11.578-5.789a8 8 0 0 0 4.422-7.155v-16h16v11.056l-11.578 5.789a8 8 0 0 0 -4.422 7.155zm48 8h-32v-3.056l11.578-5.789a8 8 0 0 0 4.422-7.155v-16h16zm0-48h-16v-16h16zm0-32h-27.308l-4-48.029a8.005 8.005 0 0 0 6.9-5.441l8-24a8 8 0 0 0 -1.933-8.187l-16-16a8 8 0 0 0 -5.659-2.343h-24v-6.111l4.944-9.889h59.056zm39.49-322.809a8 8 0 0 0 -7.49-5.191h-312v16h14.938l-6 48h-46.692l12-48h9.754v-16h-72a8 8 0 0 0 -7.49 5.191l-24.51 64c-.015.041 0 18.809 0 18.809a39.962 39.962 0 0 0 16 31.978v56.022h16v-48.8a39.991 39.991 0 0 0 40-15.223 39.958 39.958 0 0 0 64 0 39.958 39.958 0 0 0 64 0 39.958 39.958 0 0 0 64 0 39.958 39.958 0 0 0 64 0 39.958 39.958 0 0 0 64 0 39.991 39.991 0 0 0 40 15.223v224.8h16v-232.022a39.962 39.962 0 0 0 16-31.978s.015-18.768 0-18.809zm-375.49 82.809a24 24 0 0 1 -48 0v-8h48zm1.754-24h-46.21l18-48h40.21zm62.246 24a24 24 0 0 1 -48 0v-8h48zm64 0a24 24 0 0 1 -48 0v-8h48zm0-24h-46.938l6-48h40.938zm64 24a24 24 0 0 1 -48 0v-8h48zm0-24h-48v-48h48zm16-48h40.938l6 48h-46.938zm48 72a24 24 0 0 1 -48 0v-8h48zm9.062-72h40.692l12 48h-46.692zm54.938 72a24 24 0 0 1 -48 0v-8h48zm2.246-72h40.21l18 48h-46.21zm61.754 72a24 24 0 0 1 -48 0v-8h48zm-360 200h32a8 8 0 0 0 8-8v-32a8 8 0 0 0 -8-8h-32a8 8 0 0 0 -8 8v32a8 8 0 0 0 8 8zm8-32h16v16h-16zm-40-16h-32a8 8 0 0 0 -8 8v32a8 8 0 0 0 8 8h32a8 8 0 0 0 8-8v-32a8 8 0 0 0 -8-8zm-8 32h-16v-16h16zm-32 72a8 8 0 0 0 8 8h32a8 8 0 0 0 8-8v-32a8 8 0 0 0 -8-8h-32a8 8 0 0 0 -8 8zm16-24h16v16h-16zm-16 88a8 8 0 0 0 8 8h32a8 8 0 0 0 8-8v-32a8 8 0 0 0 -8-8h-32a8 8 0 0 0 -8 8zm16-24h16v16h-16zm96-40v-32a8 8 0 0 0 -8-8h-32a8 8 0 0 0 -8 8v32a8 8 0 0 0 8 8h32a8 8 0 0 0 8-8zm-16-8h-16v-16h16zm-56 96h32v16h-32zm-56-176v192a16.019 16.019 0 0 0 16 16h88v16h-88a32.036 32.036 0 0 1 -32-32v-192zm142.334-60.6a31.552 31.552 0 0 0 -14.334-3.4h-112a32.036 32.036 0 0 0 -32 32v16h16v-16a16.019 16.019 0 0 1 16-16h20.687l5.656 5.657a8 8 0 0 0 5.657 2.343h48a8 8 0 0 0 5.657-2.343l5.656-5.657h20.687a15.708 15.708 0 0 1 7.156 1.7 15.9 15.9 0 0 1 8.844 14.3v148.687l-13.372-13.374a24.966 24.966 0 0 0 -40.955 8.687h-1.673a8 8 0 0 0 -8 8v32a8 8 0 0 0 8 8h28.687l1.3 1.3a57.851 57.851 0 0 0 -.239 52.08l2.252 4.509v6.111h16v-8a7.994 7.994 0 0 0 -.845-3.578l-3.1-6.2a41.8 41.8 0 0 1 2.6-41.783 8 8 0 0 0 -1-10.095l-27.029-27.03a8.97 8.97 0 1 1 12.685-12.685l43.03 43.029 11.314-11.314-13.655-13.658v-57.373l14.627 14.628a31.791 31.791 0 0 1 9.373 22.627v111.432h16v-111.432a47.686 47.686 0 0 0 -14.059-33.941l-25.941-25.941v-84.686a31.8 31.8 0 0 0 -17.666-28.6zm-46.334 204.6v-4.681l4.686 4.681z"/></g></svg>