<svg id="Layer_1" enable-background="new 0 0 512 512" height="512" viewBox="0 0 512 512" width="512" xmlns="http://www.w3.org/2000/svg"><g><g><path d="m438.432 34.293v312.33c0 14.8-11.99 26.79-26.79 26.79h-311.29c-14.8 0-26.79-11.99-26.79-26.79v-312.33c0-14.8 11.99-26.79 26.79-26.79h311.29c14.8 0 26.79 11.99 26.79 26.79z" fill="#e5f5f9"/><path d="m103.532 37.563h304.92v260.7h-304.92z" fill="#5cd5ff"/><path d="m438.432 34.293v312.33c0 14.8-11.99 26.79-26.79 26.79h-37.98c14.8 0 26.79-11.99 26.79-26.79v-312.33c0-14.8-11.99-26.79-26.79-26.79h37.98c14.8 0 26.79 11.99 26.79 26.79z" fill="#bfd5dd"/><path d="m373.662 37.563h34.79v260.7h-34.79z" fill="#5ab5ff"/><path d="m408.452 253.503v44.76h-304.92v-80.79h39.14l65.63-65.64 73.02 73.02 49.24-49.25 43.1 43.11z" fill="#91ff31"/><path d="m408.452 253.503v44.76h-34.79v-79.55z" fill="#00ea80"/><path d="m312.512 113.563c0 17.63-14.29 31.92-31.92 31.92-4.66 0-9.08-1-13.07-2.79-11.11-4.99-18.85-16.16-18.85-29.13s7.74-24.13 18.85-29.12c3.99-1.79 8.41-2.79 13.07-2.79 17.63 0 31.92 14.29 31.92 31.91z" fill="#ffeb31"/><path d="m312.512 113.563c0 17.63-14.29 31.92-31.92 31.92-4.66 0-9.08-1-13.07-2.79 11.12-4.99 18.86-16.16 18.86-29.13s-7.74-24.13-18.86-29.12c3.99-1.79 8.41-2.79 13.07-2.79 17.63 0 31.92 14.29 31.92 31.91z" fill="#ffce00"/></g><path d="m336.21 424.28c0 44.3-35.91 80.22-80.22 80.22-5.65 0-11.17-.59-16.5-1.7-36.38-7.61-63.72-39.87-63.72-78.52s27.34-70.92 63.72-78.52c5.33-1.11 10.85-1.7 16.5-1.7 44.31 0 80.22 35.91 80.22 80.22z" fill="#91ff31"/><path d="m336.21 424.28c0 44.3-35.91 80.22-80.22 80.22-5.65 0-11.17-.59-16.5-1.7 36.39-7.61 63.72-39.87 63.72-78.52s-27.33-70.92-63.72-78.52c5.33-1.11 10.85-1.7 16.5-1.7 44.31 0 80.22 35.91 80.22 80.22z" fill="#00ea80"/></g><g><path d="m411.648 0h-311.296c-18.907 0-34.289 15.382-34.289 34.289v312.335c0 18.907 15.382 34.289 34.289 34.289h28.737c4.142 0 7.5-3.357 7.5-7.5s-3.358-7.5-7.5-7.5h-28.737c-10.636 0-19.289-8.653-19.289-19.289v-312.335c0-10.636 8.653-19.289 19.289-19.289h311.296c10.636 0 19.289 8.653 19.289 19.289v312.335c0 10.636-8.653 19.289-19.289 19.289h-90.214c-16.077-18.004-39.454-29.356-65.434-29.356s-49.357 11.352-65.434 29.356h-26.865c-4.142 0-7.5 3.357-7.5 7.5s3.358 7.5 7.5 7.5h16.065c-7.308 12.798-11.488 27.602-11.488 43.365 0 48.37 39.352 87.722 87.722 87.722 34.091 0 65.364-20.004 79.67-50.962 1.738-3.761.098-8.217-3.662-9.955-3.76-1.737-8.217-.097-9.954 3.662-11.862 25.669-37.79 42.255-66.054 42.255-40.099 0-72.722-32.623-72.722-72.722s32.623-72.722 72.722-72.722 72.722 32.623 72.722 72.722c0 4.143 3.358 7.5 7.5 7.5s7.5-3.357 7.5-7.5c0-15.763-4.179-30.568-11.488-43.365h79.414c18.907 0 34.289-15.382 34.289-34.289v-312.335c0-18.907-15.382-34.289-34.289-34.289z"/><path d="m408.459 76.498c4.142 0 7.5-3.357 7.5-7.5v-31.435c0-4.143-3.358-7.5-7.5-7.5h-304.918c-4.142 0-7.5 3.357-7.5 7.5v260.694c0 4.143 3.358 7.5 7.5 7.5h304.919c4.142 0 7.5-3.357 7.5-7.5v-194.564c0-4.143-3.358-7.5-7.5-7.5s-7.5 3.357-7.5 7.5v131.698l-65.09-65.091c-1.406-1.406-3.314-2.196-5.303-2.196s-3.897.79-5.303 2.196l-43.94 43.94-67.709-67.71c-1.406-1.406-3.314-2.196-5.303-2.196s-3.897.79-5.303 2.196l-63.438 63.438h-28.529v-164.905h289.919v23.936c-.002 4.142 3.356 7.499 7.498 7.499zm-265.783 148.472c1.989 0 3.897-.79 5.303-2.196l60.332-60.332 67.709 67.71c1.406 1.406 3.314 2.196 5.303 2.196s3.897-.79 5.303-2.196l43.94-43.94 70.394 70.395v34.151h-289.919v-65.788z"/><path d="m241.177 113.565c0 21.735 17.683 39.419 39.419 39.419 21.735 0 39.418-17.684 39.418-39.419s-17.683-39.419-39.418-39.419c-21.736 0-39.419 17.684-39.419 39.419zm63.838 0c0 13.465-10.954 24.419-24.418 24.419-13.465 0-24.419-10.954-24.419-24.419s10.954-24.419 24.419-24.419c13.464 0 24.418 10.955 24.418 24.419z"/><path d="m256 470.874c4.142 0 7.5-3.357 7.5-7.5v-60.085l21.341 21.342c2.929 2.928 7.678 2.928 10.606 0 2.929-2.93 2.929-7.678 0-10.607l-34.145-34.145c-1.406-1.406-3.314-2.196-5.303-2.196s-3.897.79-5.303 2.196l-34.144 34.145c-2.929 2.93-2.929 7.678 0 10.607 1.464 1.464 3.384 2.196 5.303 2.196s3.839-.732 5.303-2.196l21.341-21.342v60.085c.001 4.143 3.359 7.5 7.501 7.5z"/></g></svg>