<svg height="512" viewBox="0 0 64 64" width="512" xmlns="http://www.w3.org/2000/svg"><g id="mobilephone_&#xB7;_ecommerce_&#xB7;_shopping_&#xB7;_shirt_&#xB7;_cart" data-name="mobilephone &#xB7; ecommerce &#xB7; shopping &#xB7; shirt &#xB7; cart"><path d="m24 9h34v44h-34z" fill="#ffdaaa"/><path d="m54 9v26a16 16 0 0 1 -16 16h-14v2h34v-44z" fill="#ffc477"/><path d="m24 53v4a4 4 0 0 0 4 4h26a4 4 0 0 0 4-4v-4z" fill="#006df0"/><path d="m40 38h-9.75l.75 6h7z" fill="#5eac24"/><path d="m24 36a6 6 0 0 1 6-6h4a2 2 0 0 0 2-2v-2a3 3 0 0 0 -3-3h-7.343a4 4 0 0 0 -2.829 1.172l-1.656 1.656a4 4 0 0 1 -2.829 1.172h-2.343v22h8z" fill="#ffbcab"/><path d="m16 25h-13v26h13v-2-22z" fill="#004fac"/><path d="m61 28a3 3 0 0 0 -3-3h-4a3 3 0 0 0 0 6h4a3 3 0 0 0 3-3z" fill="#ffbcab"/><path d="m51 34a3 3 0 0 0 3 3h4a3 3 0 0 0 0-6h-4a3 3 0 0 0 -3 3z" fill="#ffbcab"/><path d="m51 40a3 3 0 0 0 3 3h4a3 3 0 0 0 0-6h-4a3 3 0 0 0 -3 3z" fill="#ffbcab"/><path d="m51 46a3 3 0 0 0 3 3h4a3 3 0 0 0 0-6h-4a3 3 0 0 0 -3 3z" fill="#ffbcab"/><path d="m46 28v-10l4 1v-4l-3.983-1h-2.017a3 3 0 0 1 -6 0h-2.025l-3.975 1v4l4-1v10z" fill="#ed1c24"/><path d="m28 3h26a4 4 0 0 1 4 4v2a0 0 0 0 1 0 0h-34a0 0 0 0 1 0 0v-2a4 4 0 0 1 4-4z" fill="#006df0"/><g fill="#231f20"><circle cx="32" cy="47" r="2"/><circle cx="37" cy="47" r="2"/><path d="m40 37h-8.867l-.141-1.124a1 1 0 0 0 -.992-.876h-2a1 1 0 0 0 0 2h1.117l.139 1.111v.029l.748 5.984a1 1 0 0 0 .996.876h7a1 1 0 0 0 .948-.684l2-6a1 1 0 0 0 -.948-1.316zm-2.721 6h-5.4l-.5-4h7.229z"/><path d="m43 7h2a1 1 0 0 0 0-2h-2a1 1 0 0 0 0 2z"/><path d="m43 56h-4a1 1 0 0 0 0 2h4a1 1 0 0 0 0-2z"/><path d="m37 7h2a1 1 0 0 0 0-2h-2a1 1 0 0 0 0 2z"/><path d="m60.62 31a3.971 3.971 0 0 0 -1.62-6.86v-17.14a5 5 0 0 0 -5-5h-26a5 5 0 0 0 -5 5v15.78a5.178 5.178 0 0 0 -.88.68l-1.66 1.66a2.956 2.956 0 0 1 -2.12.88h-1.34v-1a1 1 0 0 0 -1-1h-13a1 1 0 0 0 -1 1v26a1 1 0 0 0 1 1h13a1 1 0 0 0 1-1v-1h6v7a5 5 0 0 0 5 5h26a5 5 0 0 0 5-5v-7.14a3.971 3.971 0 0 0 1.62-6.86 3.951 3.951 0 0 0 0-6 3.951 3.951 0 0 0 0-6zm-45.62 19h-11v-24h11zm10-43a3.009 3.009 0 0 1 3-3h26a3.009 3.009 0 0 1 3 3v1.03h-32zm-2 29v12h-6v-20h1.34a4.994 4.994 0 0 0 3.54-1.46l1.66-1.66a2.956 2.956 0 0 1 2.12-.88h7.34a2.006 2.006 0 0 1 2 2v2a1 1 0 0 1 -1 1h-4a7.008 7.008 0 0 0 -7 7zm34 21a3.009 3.009 0 0 1 -3 3h-26a3.009 3.009 0 0 1 -3-3v-3h32zm0-5h-32v-16a5 5 0 0 1 5-5h4a3.01 3.01 0 0 0 2.82-2h9.18a1 1 0 0 0 1-1v-8.72l2.76.69a.989.989 0 0 0 .86-.18 1 1 0 0 0 .38-.79v-4a1 1 0 0 0 -.76-.97l-3.98-1a.986.986 0 0 0 -.24-.03h-2.02a1 1 0 0 0 -1 1 2 2 0 0 1 -4 0 1 1 0 0 0 -1-1h-2.02a1.007 1.007 0 0 0 -.25.03l-3.97 1a1 1 0 0 0 -.76.97v4a1 1 0 0 0 .38.79 1.022 1.022 0 0 0 .86.18l2.76-.69v3.28a3.906 3.906 0 0 0 -2-.56h-7.34c-.23 0-.44.04-.66.06v-12.03h32v13.97h-3a3.985 3.985 0 0 0 -2.62 7 3.951 3.951 0 0 0 0 6 3.951 3.951 0 0 0 0 6 3.985 3.985 0 0 0 2.62 7h3zm-20.38-34.79a.989.989 0 0 0 -.86-.18l-2.76.69v-1.94l3.1-.78h1.03a4 4 0 0 0 7.74 0h1.02l3.11.78v1.94l-2.76-.69a1.022 1.022 0 0 0 -.86.18 1 1 0 0 0 -.38.79v9h-8v-9a1 1 0 0 0 -.38-.79zm21.38 30.79h-4a2 2 0 0 1 0-4h4a2 2 0 0 1 0 4zm0-6h-4a2 2 0 0 1 0-4h4a2 2 0 0 1 0 4zm0-6h-4a2 2 0 0 1 0-4h4a2 2 0 0 1 0 4zm0-6h-4a2 2 0 0 1 0-4h4a2 2 0 0 1 0 4z"/><path d="m48 38h-4a1 1 0 0 0 0 2h4a1 1 0 0 0 0-2z"/><path d="m48 42h-5a1 1 0 0 0 0 2h5a1 1 0 0 0 0-2z"/><path d="m48 46h-6a1 1 0 0 0 0 2h6a1 1 0 0 0 0-2z"/></g></g></svg>